<svg clip-rule="evenodd" fill-rule="evenodd" stroke-linejoin="round" stroke-miterlimit="1.414" viewBox="0 0 599 196" xmlns="http://www.w3.org/2000/svg"><g fill-rule="nonzero"><path d="M262.409 13.531c.232 0 .232.116.232.235 0 .468-.232 1.406-.585 1.406l-5.512.937c-.938.119-1.175.588-1.175 1.291-.585 7.625-.938 26.278-.938 28.038 0 1.521.469 1.64 1.878 1.759 6.45.234 27.916.584 32.725.35.119-3.634-.115-27.685-.115-29.325 0-1.291-.469-1.994-1.41-2.113l-5.512-.937c-.469-.119-.703-.822-.703-1.406 0-.119 0-.235.353-.235h24.047c.234 0 .234.116.234.35 0 .469-.35 1.172-.584 1.291l-4.225.822c-.938.115-1.172.469-1.291 2.228-.35 4.456-1.172 24.75-1.291 31.203-.115 5.278-.703 29.441-.703 31.906 0 1.407.235 1.76 1.175 1.994l5.747 1.172c.235.119.588.706.588 1.175 0 .234 0 .35-.353.35-1.878-.116-6.454-.235-11.263-.235-5.397 0-10.44.119-12.319.235-.35 0-.35-.116-.35-.35 0-.469.119-1.056.588-1.175l5.981-1.172c.822-.234 1.525-.469 1.525-1.644.116-3.284-.119-29.09-.119-31.906-5.04 0-26.04.587-33.193.937-1.057 0-1.41.472-1.41 1.294-.234 4.691-.703 26.275-.584 29.91 0 1.056.584 1.29 1.287 1.525l6.569 1.056c.353.119.706.706.706 1.175 0 .234-.118.35-.353.35-2.347-.116-6.922-.235-12.434-.235-4.925 0-8.797.119-11.263.235-.234 0-.234-.116-.234-.35 0-.469.119-1.056.588-1.175l5.162-1.172c.822-.119 1.406-.469 1.406-1.644 0-4.34-.234-28.153-.234-32.609 0-4.575-.469-28.153-.469-30.616-.116-1.29-.353-2.228-1.406-2.347l-5.047-.937c-.35-.119-.584-.703-.584-1.291 0-.234 0-.35.353-.35zm89.291 5.747c-.469 1.525-1.053 3.519-1.406 4.456-3.519 10.207-8.328 24.988-10.675 32.728-.235.938 0 1.057.469 1.172 5.75.353 20.528.941 25.806.588-2.11-6.216-8.678-24.634-12.081-34.253a60.314 60.314 0 0 0-1.644-4.691zm3.169-5.984c2.347 0 4.575.118 6.215.237.353 0 .588.116.703.466 4.341 14.665 16.541 52.084 21.351 66.981.468 1.291 1.29 2.228 2.346 2.463l4.575 1.175c.35.115.585.703.585 1.171 0 .119-.116.235-.35.235-1.878-.116-6.335-.235-10.675-.235-5.278 0-10.322.119-13.138.235-.234 0-.234-.116-.234-.235 0-.584.234-1.171.703-1.29l6.334-1.172c.938-.234 1.407-.822 1.057-1.759-1.875-5.397-5.982-16.188-7.86-21.232-5.278 0-20.294.35-27.565.704-.704 0-.941.468-1.172 1.171-1.175 4.225-3.991 13.841-5.163 19.238-.234 1.409.235 1.759 1.057 1.878l6.803 1.291c.468 0 .703.587.703 1.171 0 .235-.119.235-.353.235-2.463-.116-7.272-.235-12.082-.235-3.637 0-6.918.119-8.678.235a.25.25 0 0 1-.234-.235c0-.468.234-1.171.703-1.29l3.284-.938c.822-.234 1.525-.821 2.228-2.346 5.982-14.779 18.651-50.557 24.047-65.219.822-2.113 1.76-2.7 4.691-2.7h.119zm107.028 15.837c0 .469-.822.822-1.172.822-.234 0-.234 0-.353-.234l-3.988-11.028c-.468-1.053-1.056-1.641-2.347-1.875-4.809-.822-13.959-1.291-17.478-1.291-.468 7.506-.937 26.978-1.056 32.256-.115 7.625-.584 30.381-.584 34.019 0 1.172.469 1.406 1.287 1.525l6.922 1.172c.353.119.703.706.703 1.175 0 .234-.115.35-.35.35-2.347-.116-7.39-.235-13.137-.235-5.163 0-9.619.119-12.2.235-.235 0-.235-.116-.235-.235 0-.468.235-1.171.585-1.29l6.337-1.172c.822-.119 1.288-.469 1.288-1.644.118-4.222-.116-28.737-.235-33.665 0-4.575-.231-25.807-.468-32.491-3.635-.119-12.55.35-17.475 1.172-1.175.234-1.997.703-2.347 1.759l-4.225 10.675c-.116.235-.116.235-.35.235-.472 0-1.175-.354-1.175-.704l.822-14.896c0-.588.234-.822.821-.822.704 0 2.229.118 6.454.234 4.221.234 11.259.353 23.106.353s18.887-.119 23.109-.237c4.341-.116 5.866-.232 6.569-.232.469 0 .703.232.703.819l.469 15.25zm41.081-15.6c.235 0 .235.116.235.235 0 .468-.235 1.406-.591 1.406l-5.509.937c-.941.119-1.172.588-1.172 1.291-.591 7.625-.941 26.278-.941 28.038 0 1.521.469 1.64 1.878 1.759 6.45.234 27.916.584 32.725.35.119-3.634-.115-27.685-.115-29.325 0-1.291-.469-1.994-1.41-2.113l-5.512-.937c-.469-.119-.703-.822-.703-1.406 0-.119 0-.235.353-.235h24.043c.235 0 .235.116.235.35 0 .469-.35 1.172-.585 1.291l-4.225.822c-.934.115-1.171.469-1.29 2.228-.35 4.456-1.172 24.75-1.288 31.203-.119 5.278-.703 29.441-.703 31.906 0 1.407.234 1.76 1.172 1.994l5.747 1.172c.237.119.587.706.587 1.175 0 .234 0 .35-.35.35-1.878-.116-6.453-.235-11.262-.235-5.397 0-10.441.119-12.316.235-.356 0-.356-.116-.356-.35 0-.469.122-1.056.591-1.175l5.981-1.172c.822-.234 1.525-.469 1.525-1.644.116-3.284-.119-29.09-.119-31.906-5.044 0-26.04.587-33.197.937-1.056 0-1.406.472-1.406 1.294-.234 4.691-.706 26.275-.587 29.91 0 1.056.587 1.29 1.293 1.525l6.566 1.056c.35.119.706.706.706 1.175 0 .234-.119.35-.356.35-2.344-.116-6.916-.235-12.431-.235-4.925 0-8.8.119-11.263.235-.234 0-.234-.116-.234-.35 0-.469.115-1.056.587-1.175l5.163-1.172c.822-.119 1.406-.469 1.406-1.644 0-4.34-.234-28.153-.234-32.609 0-4.575-.469-28.153-.469-30.616-.116-1.29-.353-2.228-1.409-2.347l-5.044-.937c-.35-.119-.585-.703-.585-1.291 0-.234 0-.35.354-.35zm90.685 0c.234 0 .353.116.353.35 0 .469-.238 1.291-.707 1.291l-4.809.822c-.822.234-1.056.703-1.172 1.525-.472 7.74-.822 26.862-.937 32.14-.119 4.925-.469 30.029-.469 32.257 0 1.056.469 1.29 1.291 1.525l5.746 1.056c.35.119.585.822.585 1.175 0 .234 0 .35-.235.35-1.64-.116-6.453-.235-11.962-.235-4.809 0-8.919.119-11.263.235-.234 0-.234-.116-.234-.35 0-.469.234-1.056.587-1.175l5.513-1.172c.822-.119 1.288-.469 1.288-1.525.118-4.222-.116-27.216-.232-33.313-.118-6.218-.468-26.981-.587-29.912 0-1.291-.353-2.347-1.41-2.581l-5.043-.822c-.35 0-.585-.588-.585-1.291 0-.234 0-.35.35-.35zM299.444 129.344c0 .469-.819.822-1.172.822-.234 0-.234 0-.35-.235l-3.991-11.025c-.469-1.056-1.056-1.643-2.347-1.878-4.809-.822-13.959-1.29-17.478-1.29-.468 7.506-.937 26.978-1.056 32.256-.119 7.625-.584 30.384-.584 34.019 0 1.174.465 1.409 1.287 1.525l6.922 1.171c.353.119.703.707.703 1.175 0 .235-.119.354-.35.354-2.347-.119-7.39-.238-13.137-.238-5.163 0-9.619.119-12.2.238-.235 0-.235-.119-.235-.238 0-.469.235-1.172.585-1.291l6.334-1.171c.822-.116 1.291-.469 1.291-1.641.118-4.225-.116-28.741-.235-33.666 0-4.575-.234-25.806-.468-32.493-3.638-.119-12.554.35-17.479 1.175-1.171.231-1.993.703-2.346 1.759l-4.222 10.672c-.116.234-.116.234-.354.234-.468 0-1.171-.35-1.171-.703l.821-14.897c0-.587.235-.822.819-.822.706 0 2.232.119 6.453.235 4.222.234 11.26.353 23.11.353 11.847 0 18.884-.119 23.106-.235 4.344-.118 5.869-.234 6.572-.234.469 0 .703.234.703.822zm38 23.697c10.556 0 20.178-6.807 20.178-20.294 0-10.322-7.156-17.478-18.769-17.478-3.872 0-5.397.469-5.515 2.228-.585 8.562-1.172 31.672-1.172 33.666 0 1.525.937 1.878 5.162 1.878zm30.968-20.997c0 10.556-9.034 17.006-15.484 19.587 5.397 7.391 13.138 20.882 17.947 30.382.472.821 1.056 1.174 1.759 1.409l4.929 1.287c.468.119.703.707.703 1.175 0 .235-.119.354-.353.354-2.229-.119-5.394-.238-9.854-.238-3.753 0-7.625.119-11.962.238-.234 0-.353-.119-.353-.238 0-.584.234-1.172.703-1.291l5.278-.937c1.172-.234 1.759-.585 1.172-1.525-5.041-7.625-13.253-19.588-19.822-26.86-.353-.471-.937-.587-1.525-.587-2.109.234-6.803.234-9.266.116-.237 3.753-.703 23.343-.703 26.862 0 1.172.466 1.525 1.172 1.644l6.803 1.287c.353.119.588.707.588 1.175 0 .235 0 .354-.353.354-3.754-.119-7.86-.238-12.2-.238-4.457 0-8.328.119-11.497.238-.232 0-.232-.119-.232-.354 0-.587.116-1.056.585-1.175l5.397-1.171c.703-.235 1.29-.588 1.29-1.641.116-4.341-.118-27.566-.118-32.613 0-4.572-.235-27.8-.354-30.378 0-1.409-.349-2.231-1.287-2.231l-5.397-.469c-.35-.118-.703-.703-.703-1.29 0-.116 0-.35.353-.35 4.456-.469 14.897-1.291 24.747-1.291 18.887 0 28.037 7.272 28.037 18.65zm46.235-18.3c.35 0 .35.119.35.234 0 .703-.116 1.291-.588 1.406l-6.215.822c-.938.119-1.172.353-1.291 1.291-1.053 9.972-1.406 23.812-1.406 35.659-.119 21.938 7.037 31.672 17.478 31.672 12.903 0 18.65-9.853 18.766-32.609 0-9.031-.232-25.338-1.172-34.488-.116-1.172-.35-1.406-1.172-1.525l-6.334-.822c-.469-.115-.704-.818-.704-1.287 0-.234.116-.353.35-.353h22.288c.353 0 .353.119.353.353 0 .584-.234 1.287-.587 1.287l-3.869.704c-.941.237-1.291.587-1.175 1.528.703 9.734 1.406 21.347 1.406 35.072-.116 22.171-11.144 34.253-29.325 34.253-15.6 0-27.097-8.094-26.978-32.375 0-13.96 1.759-29.797 2.347-35.894.231-1.528 0-2.231-1.291-2.466l-4.459-.822c-.469-.115-.703-.703-.703-1.287 0-.234.118-.353.353-.353zm103.825 51.731c0 11.728-11.263 21.466-32.022 21.466-3.875 0-8.094-.353-10.087-1.057-.588-.118-.826-.468-.941-.937l-1.759-13.256c-.116-.469.94-1.175 1.29-1.175.116 0 .353.118.353.237 1.644 3.4 3.285 6.803 5.041 9.972.587 1.053.94 1.406 1.878 1.994 1.762 1.053 5.278 1.522 8.094 1.522 11.259 0 19.587-5.513 19.587-14.66 0-8.212-6.215-12.318-16.772-16.893-10.79-4.341-17.359-9.5-17.359-18.301 0-10.79 12.197-21.581 29.794-21.581 4.337 0 7.859.469 9.619 1.291.468.231.703.469.703.937l1.172 13.138c0 .469-.819 1.056-1.172 1.056-.119 0-.353-.119-.353-.353-1.522-3.284-3.047-6.684-4.691-10.088-.469-.821-.819-1.29-1.759-1.874-1.172-.825-3.635-1.41-6.804-1.41-10.556 0-17.362 6.45-17.362 14.428 0 6.803 4.575 10.441 14.312 15.131 10.441 4.929 19.238 9.854 19.238 20.294zm79.55-36.131c0 .469-.825.822-1.175.822-.234 0-.234 0-.353-.235l-3.988-11.025c-.469-1.056-1.056-1.643-2.347-1.878-4.809-.822-13.959-1.29-17.478-1.29-.468 7.506-.934 26.978-1.056 32.256-.116 7.625-.584 30.384-.584 34.019 0 1.174.468 1.409 1.29 1.525l6.922 1.171c.35.119.7.707.7 1.175 0 .235-.115.354-.35.354-2.347-.119-7.39-.238-13.137-.238-5.16 0-9.619.119-12.2.238-.235 0-.235-.119-.235-.238 0-.469.235-1.172.588-1.291l6.331-1.171c.822-.116 1.294-.469 1.294-1.641.115-4.225-.119-28.741-.238-33.666 0-4.575-.234-25.806-.468-32.493-3.635-.119-12.551.35-17.479 1.175-1.172.231-1.993.703-2.343 1.759l-4.222 10.672c-.119.234-.119.234-.356.234-.466 0-1.172-.35-1.172-.703l.822-14.897c0-.587.234-.822.821-.822.703 0 2.229.119 6.45.235 4.225.234 11.263.353 23.11.353 11.85 0 18.887-.119 23.109-.235 4.341-.118 5.863-.234 6.569-.234.469 0 .703.234.703.822z" fill="#939598"/><path d="M0 0h207.959v195.337H0z" fill="#ee7b22"/><g fill="#fff"><path d="M86.409 16.434c-7.325-.181-14.65-.365-21.975-.55-3.571-.087-10.925-1.837-14.215.141C37.134 23.9 15.988 38.328 14.606 55.15c-1.422 17.366 10.375 27.822 25.366 34.359 10.316 4.497 17.203 13.291 27.794 17.266 5.262 1.978 10.434.166 15.731-.797 2.709-.494 1.559-4.615-1.138-4.125-4.765.866-8.725 2.072-13.456.8-10.366-2.787-13.169-13.622-23.072-15.687-22.453-4.685-34.39-26.469-19.512-45.569 5.7-7.316 19.875-21.691 28.131-21.481l31.959.796c2.763.069 2.753-4.209 0-4.278z"/><path d="M85.331 21.084c-9.781 5.244-16.156 15.647-14.044 26.794.516 2.706 4.638 1.56 4.126-1.137-1.754-9.247 4.115-17.694 12.078-21.966 2.431-1.303.272-4.994-2.16-3.691zM60.856 32.187c-10.818-1.621-22.234-.053-32.125 4.569-2.497 1.169-.325 4.853 2.16 3.694 8.75-4.087 19.231-5.575 28.825-4.138 2.7.404 3.859-3.715 1.14-4.125zm-5.29 13.147c-10.885.8-21.697 4.913-30.275 11.61-2.172 1.697.878 4.703 3.025 3.025 7.606-5.938 17.597-9.647 27.25-10.356 2.734-.2 2.753-4.479 0-4.279zm2.056 11.269C47.544 58.15 40.5 67.803 37.544 76.784c-.866 2.629 3.265 3.744 4.125 1.141 2.534-7.7 8.468-15.875 17.09-17.194 2.719-.419 1.56-4.54-1.137-4.128zm6.047 14.013l-7.838 15.671c-1.231 2.46 2.46 4.629 3.691 2.16l7.837-15.675c1.232-2.46-2.459-4.625-3.69-2.156zm23.294 4.259c.884 5.222 2.784 15.809-2.063 19.691-.606.484-.691 1.384-.553 2.081 1.056 5.241-1.156 8.219-6.141 14.078-10.725 12.606-27.331 17.769-43.172 19.788-2.221.281-3.115 3.59-.571 4.2 21.218 5.084 40.578-2.832 54.846-18.851 3.407-3.821 1.088-3.928 3.369 3.229 2.219 6.959 2.881 14.456 3.213 21.709.484 10.697-2.344 20.281-13.263 24.166-13.922 4.959-20.606-17.969-8.162-15.488 1.575.316 3.396 1.463 4.775 2.434.837.594 1.881.232 2.59-.331 1.45-1.162 2.903-2.322 4.353-3.481.766-.616.741-1.809.335-2.597-11.078-21.403-39.025-4.787-32.403 16.391 5.628 17.987 29.228 26.559 45.672 18.35 27.203-13.588 22.787-37.363 21.768-63.078-.134-3.335-3.24-6.366-.156-2.316 3.028 3.978 6.616 7.694 10.581 10.737 12.966 9.947 27.113 13.144 43.01 9.344 2.543-.609 1.65-3.919-.569-4.203-16.425-2.087-31.669-7.472-43.172-19.784-5.156-5.519-7.147-9.069-6.144-14.078.141-.7.056-1.597-.55-2.082-4.847-3.881-2.947-14.471-2.062-19.69.456-2.7-3.666-3.853-4.125-1.141-6.081 35.888 22.2 56.744 56.053 61.053l-.572-4.2c-19.888 4.757-39.522-3.812-50.7-20.787-.525-.797-1.463-1.266-2.416-.985-5.947 1.744-3.34 11.063-3.156 15.691.503 12.684 2.638 26.084-2.865 37.969-8.713 18.822-40.904 22.297-52.844 5.069-8.869-12.797 1.359-40.191 18.35-23.857 4.603 4.425.903 3.547-2.541 2.238-9.1-3.463-16.469 1.894-14.928 11.559 1.838 11.541 14.775 13.61 23.847 10.378 12.928-4.603 13.922-19.55 13.397-31.103-.294-6.412-1.035-25.509-9.532-27.29-1.025-.213-1.809.159-2.415.984-12.147 16.531-32.434 24.712-52.444 19.915-.191 1.401-.381 2.804-.569 4.204 33.847-4.313 62.141-25.166 56.053-61.053-.459-2.713-4.581-1.56-4.124 1.137z"/><path d="M123.044 20.931c10.653-.269 21.306-.534 31.959-.8 8.616-.212 21.834 14.341 28.131 21.482 18.029 20.453.528 39.071-19.512 45.568-9.391 3.047-13.219 11.991-23.069 15.691-4.44 1.665-8.997.009-13.459-.803-2.694-.491-3.847 3.634-1.138 4.125 4.666.847 8.972 2.181 13.656 1.359 11.875-2.084 18.229-14.003 29.36-17.612 15.456-5.01 27.222-18.157 25.878-34.575-1.375-16.738-22.047-30.519-34.816-38.629-3.297-2.093-8.44-.796-12.112-.706-8.294.207-16.584.416-24.878.622-2.753.069-2.76 4.347 0 4.278z"/><path d="M121.966 24.991c7.962 4.272 13.831 12.721 12.078 21.968-.51 2.697 3.609 3.844 4.125 1.138 2.112-11.147-4.263-21.55-14.047-26.8-2.428-1.303-4.588 2.391-2.156 3.694zm27.772 11.537c9.593-1.437 20.078.053 28.831 4.141 2.481 1.162 4.653-2.525 2.156-3.694-9.891-4.622-21.306-6.191-32.128-4.572-2.719.406-1.56 4.528 1.141 4.125zm4.156 13.303c9.653.706 19.643 4.416 27.247 10.353 2.147 1.678 5.196-1.328 3.025-3.025-8.575-6.696-19.388-10.809-30.272-11.606-2.753-.2-2.735 4.078 0 4.278zM150.7 60.947c8.619 1.322 14.553 9.497 17.084 17.197.86 2.606 4.991 1.49 4.129-1.138-2.957-8.984-9.997-18.637-20.076-20.184-2.696-.413-3.856 3.709-1.137 4.125zm-8.603 12.044l7.837 15.675c1.235 2.468 4.922.3 3.694-2.157l-7.837-15.675c-1.235-2.468-4.922-.3-3.694 2.157zm-14.878-18.325c-1.944 1.4-3.507 3.412-4.456 5.6-.241.55-1.766 6.028.603 4.984 1.475-.65 2.259-3.544 2.818-4.869a87.264 87.264 0 0 0 1.932-5.028c.262-.744-.919-1.062-1.179-.322-.962 2.738-1.975 5.532-3.368 8.085a9.586 9.586 0 0 1-.422.684c-.422.634-.219-.034.128.466-.641-.928.5-3.338.916-4.194.803-1.659 2.14-3.266 3.643-4.35.635-.456.025-1.519-.615-1.056zm-45.282.44c1.419 1.022 2.575 2.472 3.444 3.969.697 1.2 1.466 3.094 1.144 4.5.028-.122.597.206.203-.25-.209-.244-.362-.55-.522-.825-1.431-2.516-2.409-5.356-3.372-8.081-.259-.741-1.44-.422-1.178.322.566 1.6 1.175 3.184 1.819 4.753.644 1.559 1.359 4.125 2.859 5.109.472.313 1.047.038 1.269-.434.6-1.291-.059-3.153-.528-4.372-.866-2.244-2.569-4.341-4.519-5.747-.644-.459-1.25.6-.619 1.056z"/></g></g></svg>